<svg width="60" height="60" viewBox="0 0 60 60" fill="none" xmlns="http://www.w3.org/2000/svg">
<path d="M20.0915 20.09C19.4788 19.2896 19.1154 18.2883 19.1154 17.2023C19.1154 15.5251 18.25 14.1734 18.25 11.5773C18.25 9.66563 19.7999 8.11572 21.7115 8.11572C23.6232 8.11572 25.1731 9.66563 25.1731 11.5773C25.1731 11.9468 24.9827 12.5283 24.8754 12.8615C26.9488 13.3764 28.6346 14.9696 28.6346 17.2023C28.6346 17.9811 28.4624 18.7245 28.1154 19.3657C27.7286 20.0823 26.9835 20.9052 26.0212 21.3881" stroke="black" stroke-width="2" stroke-miterlimit="10"/>
<path d="M25.084 12.1543L35.4452 13.3252C36.9683 13.4809 38.1539 14.7704 38.1539 16.3367C38.1539 18.0069 37.2885 19.3655 36.4231 19.3655C34.3462 19.3655 28.1154 19.3655 28.1154 19.3655" stroke="black" stroke-width="2" stroke-miterlimit="10"/>
<path d="M19.6434 20.5662C18.4786 21.8452 15.0136 24.5582 15.0136 24.5582C14.8751 24.7139 14.7886 24.913 14.7886 25.138C14.7886 25.138 15.3615 29.773 15.654 30.6159C15.7543 30.9049 16.0434 31.4813 16.5193 31.4813C16.7011 31.4813 16.8742 31.4207 17.0126 31.3255L24.8011 26.1332C24.9742 26.012 25.104 25.8303 25.1472 25.6139C25.1472 25.6139 26.0386 22.0685 26.0386 21.0966C26.0386 20.1889 26.0386 18.5005 23.4424 18.5005C21.5498 18.5005 20.372 19.7674 19.6434 20.5662Z" stroke="black" stroke-width="2" stroke-miterlimit="10"/>
<path d="M29.7604 19.3657C31.2463 20.4457 32.9615 21.9454 32.9615 22.3946C32.9615 24.558 31.2307 28.0196 28.2019 28.0196C27.8436 28.0196 26.1483 26.3355 25.2656 25.1292" stroke="black" stroke-width="2" stroke-miterlimit="10"/>
<path d="M34.6924 15.9043V17.6351" stroke="black" stroke-width="2" stroke-miterlimit="10"/>
<path d="M31.2307 15.0386V16.7693" stroke="black" stroke-width="2" stroke-miterlimit="10"/>
<path d="M18.25 25.4233V27.1541" stroke="black" stroke-width="2" stroke-miterlimit="10"/>
<path d="M22.5769 21.9619V23.6927" stroke="black" stroke-width="2" stroke-miterlimit="10"/>
<path d="M28.6345 22.8271V24.5579" stroke="black" stroke-width="2" stroke-miterlimit="10"/>
<path d="M37.9799 22.8705C36.9553 22.0761 36.4231 20.5435 36.4231 19.3657" stroke="black" stroke-width="2" stroke-miterlimit="10"/>
<path d="M38.1487 16.5637C38.77 16.144 39.5108 15.9043 40.3173 15.9043C42.4678 15.9043 44.2116 17.648 44.2116 19.7985C44.2116 21.5016 42.981 23.4357 40.7743 23.7265" stroke="black" stroke-width="2" stroke-miterlimit="10"/>
<path d="M40.75 18.5005V20.2313" stroke="black" stroke-width="2" stroke-miterlimit="10"/>
<path d="M36.667 29.4465C35.9799 28.7446 35.5576 27.7841 35.5576 26.7214C35.5576 24.5666 36.423 22.8271 38.5319 22.8271C40.0291 22.8271 40.9749 23.6666 41.6153 24.9127C41.9961 24.6877 42.4461 24.5579 42.9307 24.5579C44.3672 24.5579 45.9422 25.7175 45.9422 27.1541V28.0195C47.3788 28.0195 48.5384 29.1791 48.5384 30.6156C48.5384 32.0521 47.4428 33.2118 45.0768 33.2118C45.0768 35.4566 43.9172 36.6733 42.4807 36.6733C41.2293 36.6733 40.1883 35.7932 39.9408 34.6171" stroke="black" stroke-width="2" stroke-miterlimit="10"/>
<path d="M38.5865 28.8848C40.2567 28.8848 41.6154 30.2434 41.6154 31.9136C41.6154 33.1598 40.8625 34.2328 39.7808 34.6915L33.7231 37.2876C33.3596 37.4521 32.9529 37.5386 32.5288 37.5386C30.8587 37.5386 29.5 36.18 29.5 34.5098C29.5 33.2636 30.2529 32.1905 31.3346 31.7319L37.3923 29.1357C37.7558 28.9713 38.1625 28.8848 38.5865 28.8848V28.8848Z" stroke="black" stroke-width="2" stroke-miterlimit="10"/>
<path d="M32.9614 34.0771H34.6922" stroke="black" stroke-width="2" stroke-miterlimit="10"/>
<path d="M37.2886 32.3467H39.0193" stroke="black" stroke-width="2" stroke-miterlimit="10"/>
<path d="M33.4591 37.3898C33.6936 37.8208 33.8269 38.3132 33.8269 38.8367C33.8269 40.5069 32.4682 41.8656 30.798 41.8656C30.2788 41.8656 29.7769 41.7358 29.3528 41.4935C28.9634 42.7136 27.8211 43.5963 26.4711 43.5963C24.8009 43.5963 23.4423 42.2377 23.4423 40.5675C23.4423 40.1002 23.5461 39.6588 23.7451 39.2608C21.6509 39.2002 19.9807 37.4867 19.9807 35.3752C19.9807 33.2204 21.2874 31.481 23.4423 31.481" stroke="black" stroke-width="2" stroke-miterlimit="10"/>
<path d="M25.1731 31.481H26.9039" stroke="black" stroke-width="2" stroke-miterlimit="10"/>
<path d="M39.2131 6C39.9729 6.26481 40.7146 6.56683 41.4372 6.9026" stroke="black" stroke-width="2" stroke-miterlimit="10"/>
<path d="M13.6428 12.218C14.2261 11.6027 14.8414 11.0185 15.4852 10.4673" stroke="black" stroke-width="2" stroke-miterlimit="10"/>
<path d="M7 28.885C7 23.8389 8.54298 19.1528 11.1824 15.2725" stroke="black" stroke-width="2" stroke-miterlimit="10"/>
<path d="M16.175 47.8714C15.564 47.386 14.9764 46.8719 14.4148 46.3311" stroke="black" stroke-width="2" stroke-miterlimit="10"/>
<path d="M31.2306 53.116C26.889 53.116 22.8148 51.9745 19.29 49.9746" stroke="black" stroke-width="2" stroke-miterlimit="10"/>
<path d="M44.3977 8.54004C46.5672 9.94715 48.4979 11.6918 50.1144 13.6995" stroke="black" stroke-width="2" stroke-miterlimit="10"/>
<path d="M39.7608 43.9482C37.2434 45.377 34.3323 46.1931 31.2307 46.1931" stroke="black" stroke-width="2" stroke-miterlimit="10"/>
<path d="M44.8442 39.5732C44.2375 40.3443 43.5669 41.0634 42.8408 41.7203" stroke="black" stroke-width="2" stroke-miterlimit="10"/>
<path d="M24.3145 9.29524C26.478 8.53111 28.8058 8.11572 31.2307 8.11572C42.7013 8.11572 51.9999 17.4143 51.9999 28.885C51.9999 40.3556 42.7013 49.6542 31.2307 49.6542C19.76 49.6542 10.4614 40.3556 10.4614 28.885C10.4614 22.3037 13.5232 16.4373 18.2992 12.6322" stroke="black" stroke-width="2" stroke-miterlimit="10"/>
</svg>
